<svg xmlns="http://www.w3.org/2000/svg" width="138" height="32" fill="none" viewBox="0 0 138 32">
  <g clip-path="url(#a)">
    <path fill="#fff" fill-rule="evenodd" d="M138 19.9c0 6.7-4.9 11.6-11.7 11.6-6.9 0-11.7-4.9-11.7-11.6 0-6.6 4.8-11.5 11.7-11.5 6.8 0 11.7 4.9 11.7 11.5Zm-5.5 0c0-4-2.5-6.8-6.2-6.8s-6.2 2.8-6.2 6.8c0 4.1 2.5 6.9 6.2 6.9s6.2-2.8 6.2-6.9Z" clip-rule="evenodd"/>
    <path fill="#fff" d="M106.7 2v6.7h6.3v4.6h-6.3v9.5c0 2.2 1.2 3.4 3.3 3.4h3v4.9h-3.7c-4.8 0-8-2.8-8-7.8V2h5.4Z"/>
    <path fill="#fff" fill-rule="evenodd" d="M83 19.9c0 6.7-4.9 11.6-11.7 11.6-6.9 0-11.7-4.9-11.7-11.6 0-6.6 4.8-11.5 11.7-11.5 6.8 0 11.7 4.9 11.7 11.5Zm-5.5 0c0-4-2.5-6.8-6.2-6.8s-6.2 2.8-6.2 6.8c0 4.1 2.5 6.9 6.2 6.9s6.2-2.8 6.2-6.9ZM59.4 9.7c0 5.6-3.9 9.6-10.3 9.6h-6.6v11.8h-6V0h12.6c6.4 0 10.3 4 10.3 9.7Zm-5.7 0c0-2.5-1.4-4.8-4.9-4.8h-6.3v9.5h6.3c3.5 0 4.9-2.3 4.9-4.7Z" clip-rule="evenodd"/>
    <path fill="#fff" d="M85.4 31.1V16.6c0-5 3.2-7.9 8.1-7.9h5v5h-4.4c-2 0-3.2 1.1-3.2 3.4v14h-5.5Z"/>
    <path fill="#fff" fill-rule="evenodd" d="M30.7 3.7v23.7c0 2.1-1.6 3.7-3.7 3.7H3.6c-2 0-3.6-1.6-3.6-3.7V3.7C0 1.7 1.6 0 3.6 0H27c2.1 0 3.7 1.7 3.7 3.7ZM8.2 19.9c-.067 0-.1.033-.1.1-.4 3.7-1.5 6.3-2.6 7.9-.1.1.1.2.2.2 20.5-9.4 18.2-4.8 15.4-1.9-.2.2.1.4.3.3 14.2-11.6-.3-11.8-13.2-6.6ZM7.1 8.2c0 .1.1.1.1.1 10.5-2.1 15 .3 16.6 1.8.2.1.3-.1.3-.2-5.6-7-16.3-6.8-19.9-6.8-.1 0-.2.2 0 .3 1 .7 2 2.2 2.9 4.8Zm20.4 8.4c-2-8.7-13.8-8-19.6-5.9-.067 0-.1.033-.1.1.3 1.7.5 3.4.5 5.4v1.1s0 .1.1.1c7.1-2.3 16.1-4 18.9-.7 0 .1.2.1.2-.1Z" clip-rule="evenodd"/>
  </g>
  <defs>
    <clipPath id="a">
      <path fill="#fff" d="M0 0h138v32H0z"/>
    </clipPath>
  </defs>
</svg>
