<svg xmlns="http://www.w3.org/2000/svg" width="160" height="49" fill="none" viewBox="0 0 160 49">
  <path fill="#00B1E3" d="M113.571.055h44.744c1.009 0 1.842.891 1.842 1.872v44.472c0 1.025-.877 1.872-1.842 1.872h-44.832c-1.009 0-1.842-.892-1.842-1.872V1.927c.087-1.025.921-1.872 1.93-1.872Z"/>
  <path fill="#000" d="m1.053 1.124 11.274.134c3.377 0 6.097 2.496 6.316 6.328.22 3.877-1.842 8.155-8.159 8.377H6.668l-.088 7.665H1.053V1.124Zm5.57 4.367v6.284c.922.089 3.29 0 3.993-.09 3.64-.089 3.728-6.104.131-6.194H6.624ZM31.277.99C24.52.99 19.082 6.384 19.17 12.934c0 6.64 5.395 11.943 12.107 11.943 6.668 0 12.107-5.392 12.107-11.943 0-6.64-5.352-11.942-12.107-11.942Zm0 19.34c-4.3.09-6.536-3.342-6.536-7.441 0-4.055 2.28-7.442 6.536-7.442 4.211 0 6.448 3.342 6.448 7.442 0 4.189-2.15 7.397-6.448 7.442ZM94.006.456c-6.755 0-12.195 5.303-12.107 11.943 0 6.64 5.395 11.942 12.107 11.942 6.668 0 12.107-5.392 12.107-11.942 0-6.596-5.351-11.943-12.107-11.943Zm0 19.295c-4.299.09-6.536-3.342-6.536-7.442 0-4.055 2.281-7.441 6.536-7.441 4.211 0 6.449 3.342 6.449 7.441 0 4.19-2.15 7.398-6.449 7.442ZM44.832 1.124l11.273.09c3.378 0 6.098 2.495 6.317 6.416.132 2.763-.877 5.392-3.64 6.774l7.325 9.313-7.238-.089-6.01-8.244h-2.5l-.088 8.244h-5.527l.088-22.504Zm5.658 4.234v6.283c.922.09 3.29.09 3.992 0 3.641-.09 3.817-6.283.132-6.328h-4.167v.045h.043Zm12.853-4.234h19.39v4.858h-6.844v17.735h-5.615V5.982h-6.93V1.124Zm31.453 27.228c-5.659 0-10.265 4.5-10.265 10.026s4.606 10.026 10.265 10.026c5.659 0 10.265-4.5 10.265-10.026s-4.606-10.026-10.265-10.026Zm0 16.31c-3.641.088-5.527-2.853-5.527-6.284.087-3.431 2.017-6.283 5.527-6.283 3.597 0 5.439 2.852 5.439 6.283 0 3.52-1.798 6.194-5.44 6.283Z"/>
  <path fill="#000" d="m68.256 28.485 9.87.09c2.94 0 5.396 2.183 5.528 5.614.131 2.407-.702 4.724-3.159 5.971l6.36 8.155-6.36-.089-5.22-7.219h-2.15l-.087 7.22h-4.782V28.484Zm4.957 3.743v5.526c.79.09 2.852.09 3.51 0 3.246-.089 3.29-5.48.131-5.526h-3.64Zm-60.492 1.605 1.799-3.788s-4.43-2.54-8.905-1.292C1.228 30-.483 35.883 3.246 38.512c3.729 2.629 6.756 2.05 6.449 4.278-.351 3.297-5.79 1.158-8.247 0L0 46.71s2.237 1.47 6.317 1.827 7.94-1.871 8.115-5.882c.22-6.773-10.09-5.303-8.247-9.269.965-1.738 4.124-.802 6.536.446Zm16.187-4.903v4.234H21.32v2.986h6.975v4.144H21.32v3.431h8.203v4.145H16.45V28.93h12.458Zm16.582 4.724c-6.361-2.673-10.484.803-10.835 4.457-.351 3.43 2.5 7.04 8.597 5.748v-6.684h4.738v8.957c-7.808 5.035-18.205.49-17.898-7.665.351-11.051 12.459-11.452 17.196-8.645l-1.798 3.832Zm8.73-5.079-4.739-.09v11.72c-.087 5.526 4.3 8.155 8.73 8.155 4.43 0 8.905-2.674 8.817-8.155v-11.72l-4.737.09v11.407c.087 2.763-1.36 4.1-3.948 4.1-2.589 0-3.992-1.292-3.948-4.1l-.176-11.407Z"/>
  <path fill="#fff" d="M114.448 3.174c1.711-.089 22.196-.802 34.04 11.007 0 0-9.387-7.13-30.531-4.01-1.009-2.763-2.237-5.125-3.509-6.997Z"/>
  <path fill="#fff" d="M153.928 22.024c-6.361-7.353-27.11-3.699-33.383-1.96-.438-2.54-.921-4.858-1.579-6.997 4.562-.713 30.882-4.233 34.962 8.957Z"/>
  <path fill="#fff" d="M120.94 23.316c5.001-1.381 33.339-8.645 36.19 5.036-8.949-6.105-30.224.713-35.839 2.852.088-1.738 0-3.565-.131-5.526-.044-.802-.132-1.56-.22-2.362Z"/>
  <path fill="#fff" d="M120.94 35.036c12.107-5.08 49.657-14.706 33.251 6.55 3.597-6.684 1.492-7.575-3.29-7.263-9.256.49-28.25 8.734-32.9 11.051 1.36-2.584 2.457-6.016 2.939-10.338Z"/>
</svg>
